<svg fill="none" xmlns="http://www.w3.org/2000/svg" viewBox="0 0 408 271">
  <path fill="#fff" d="M0 0h408v271H0z"/>
  <rect x="260" y="59" width="120" height="51" rx="5" fill="#E08BB2"/>
  <path d="M274.17 68.73V76h-1.54v-7.27h1.54Zm2.75 4.12V76h-1.51v-5.45h1.44v.96h.06c.12-.32.32-.57.6-.76.3-.18.64-.28 1.04-.28.38 0 .71.09 1 .25.27.17.5.4.65.71.16.3.24.67.24 1.1V76h-1.52v-3.2c0-.34-.08-.6-.25-.78a.91.91 0 0 0-.72-.29c-.2 0-.38.05-.54.13a.91.91 0 0 0-.36.39c-.09.16-.13.36-.13.6Zm9.25-.75-1.39.09a.72.72 0 0 0-.15-.32.8.8 0 0 0-.31-.23 1.05 1.05 0 0 0-.45-.1c-.24 0-.43.06-.6.16-.16.1-.24.22-.24.39 0 .13.06.24.16.33.1.09.28.16.54.21l.98.2c.53.11.93.29 1.19.53.26.24.39.56.39.95 0 .36-.1.67-.32.94-.2.27-.5.48-.86.63-.36.15-.78.23-1.25.23-.72 0-1.3-.15-1.73-.45-.42-.3-.67-.72-.74-1.24l1.48-.08c.05.22.16.39.33.5.17.12.4.18.66.18.27 0 .48-.05.64-.16.17-.1.25-.23.25-.4a.42.42 0 0 0-.17-.33 1.25 1.25 0 0 0-.53-.21l-.94-.19c-.54-.1-.93-.29-1.2-.55-.25-.27-.38-.6-.38-1 0-.36.1-.66.29-.91.19-.26.46-.45.8-.59.35-.14.76-.2 1.22-.2.7 0 1.23.14 1.63.43.4.3.63.69.7 1.2Zm3.97-1.55v1.13h-3.28v-1.13h3.28Zm-2.53-1.31h1.5v5.08c0 .14.03.25.07.33.04.08.1.13.18.16.08.03.17.05.27.05a1.3 1.3 0 0 0 .38-.05l.23 1.12a4.22 4.22 0 0 1-.82.14 2.3 2.3 0 0 1-.96-.14 1.34 1.34 0 0 1-.63-.52 1.58 1.58 0 0 1-.22-.89v-5.28Zm5.07 6.86c-.34 0-.65-.06-.93-.18a1.5 1.5 0 0 1-.64-.54 1.63 1.63 0 0 1-.24-.9c0-.3.06-.56.17-.77.11-.2.26-.37.45-.5.2-.12.41-.21.66-.28.24-.06.5-.1.77-.13l.77-.1c.2-.03.33-.07.42-.13a.3.3 0 0 0 .13-.26v-.02c0-.23-.07-.4-.21-.53a.87.87 0 0 0-.6-.18c-.27 0-.49.06-.65.18a.83.83 0 0 0-.32.45l-1.4-.12a1.9 1.9 0 0 1 1.23-1.42 3.49 3.49 0 0 1 2.02-.1c.28.08.53.2.74.34a1.6 1.6 0 0 1 .7 1.41V76h-1.43v-.76h-.04a1.54 1.54 0 0 1-.88.76c-.2.07-.45.1-.72.1Zm.44-1.04c.22 0 .42-.04.59-.13.17-.1.3-.21.4-.36.1-.16.14-.33.14-.52v-.58a.8.8 0 0 1-.2.09 3.6 3.6 0 0 1-.57.12l-.28.04c-.18.02-.33.06-.46.12a.74.74 0 0 0-.31.23.56.56 0 0 0-.11.36c0 .2.07.36.22.47.15.1.35.16.58.16Zm5.32-2.21V76h-1.51v-5.45h1.44v.96h.07c.12-.32.32-.57.6-.76.29-.18.63-.28 1.04-.28.38 0 .7.09.99.25.28.17.5.4.65.71.16.3.24.67.24 1.1V76h-1.51v-3.2c0-.34-.09-.6-.26-.78a.92.92 0 0 0-.71-.29c-.2 0-.39.05-.54.13a.92.92 0 0 0-.37.39c-.08.16-.13.36-.13.6Zm7.18 3.26a2.8 2.8 0 0 1-1.45-.36 2.4 2.4 0 0 1-.92-1 3.22 3.22 0 0 1-.32-1.46c0-.55.1-1.04.32-1.47.22-.42.53-.75.93-.99s.88-.36 1.43-.36c.47 0 .89.1 1.25.26.35.18.64.42.85.73.2.31.32.68.34 1.1h-1.43a1.1 1.1 0 0 0-.32-.65.91.91 0 0 0-.67-.26c-.23 0-.44.07-.61.2-.17.12-.3.3-.4.55-.1.24-.15.53-.15.87 0 .35.04.65.14.9.1.23.23.42.4.55.18.13.39.19.62.19a1 1 0 0 0 .47-.1.89.89 0 0 0 .34-.32c.1-.13.16-.3.18-.49h1.43c-.02.42-.14.78-.34 1.1-.2.32-.48.56-.83.74-.36.18-.78.27-1.26.27Zm5.89 0c-.57 0-1.05-.12-1.45-.34-.4-.23-.72-.56-.93-.98a3.21 3.21 0 0 1-.33-1.5c0-.55.1-1.05.33-1.47.21-.42.52-.75.92-.99s.86-.36 1.4-.36c.36 0 .69.06 1 .18a2.23 2.23 0 0 1 1.36 1.38c.13.35.2.75.2 1.21v.42h-4.6v-.94h3.17c0-.22-.04-.4-.14-.58-.1-.16-.22-.3-.4-.4-.16-.09-.35-.14-.57-.14a1.13 1.13 0 0 0-1.02.58c-.1.18-.15.38-.15.6v.88c0 .27.04.5.14.7.1.2.25.35.43.46.19.1.4.16.66.16.17 0 .32-.03.46-.07a.93.93 0 0 0 .59-.56l1.4.09c-.07.33-.22.63-.44.88s-.5.44-.85.58c-.34.14-.74.2-1.18.2Zm9.77-5.3a.9.9 0 0 0-.36-.66c-.22-.16-.5-.24-.88-.24-.25 0-.46.04-.63.11a.9.9 0 0 0-.4.29.7.7 0 0 0-.14.42c0 .13.03.24.08.34.07.1.15.18.26.25.1.07.23.13.37.18.14.05.29.1.44.13l.66.15c.31.08.6.17.87.29.27.12.5.26.69.44a1.82 1.82 0 0 1 .62 1.41c0 .45-.12.83-.34 1.16-.23.32-.55.58-.97.76-.42.17-.92.26-1.52.26a4 4 0 0 1-1.53-.27 2.25 2.25 0 0 1-1.01-.8c-.25-.35-.37-.79-.38-1.31h1.48c.02.24.09.44.21.6.13.17.3.29.5.37a2 2 0 0 0 .72.12c.26 0 .48-.03.68-.11.19-.08.34-.18.45-.32.1-.13.16-.29.16-.46a.6.6 0 0 0-.15-.41 1.1 1.1 0 0 0-.42-.29c-.18-.08-.4-.15-.67-.21l-.8-.2a3.32 3.32 0 0 1-1.44-.7 1.62 1.62 0 0 1-.53-1.28c0-.44.11-.83.35-1.15.24-.33.56-.6.98-.78.42-.18.9-.27 1.42-.27.54 0 1.01.09 1.42.27.4.19.71.45.94.78.22.32.34.7.35 1.14h-1.48Zm3.52 7.24a3 3 0 0 1-.95-.16l.34-1.13c.17.05.33.08.48.09a.6.6 0 0 0 .37-.1c.1-.07.2-.2.26-.36l.09-.23-1.96-5.61h1.6l1.12 4h.06l1.14-4h1.6l-2.12 6.04c-.1.3-.24.55-.42.77-.17.22-.39.39-.65.5a2.3 2.3 0 0 1-.96.19Zm4.92-2.05v-5.45h1.44v.96h.07c.11-.32.3-.57.57-.76.26-.18.58-.28.95-.28s.7.1.95.28c.27.19.44.44.53.76h.06c.1-.31.3-.56.6-.75.3-.2.64-.29 1.04-.29.5 0 .92.17 1.24.5.32.31.48.77.48 1.36V76h-1.51v-3.37c0-.3-.08-.53-.24-.68a.85.85 0 0 0-.6-.23.81.81 0 0 0-.65.26 1 1 0 0 0-.23.69V76h-1.47v-3.4a.88.88 0 0 0-.23-.64.8.8 0 0 0-.6-.24.83.83 0 0 0-.45.13.87.87 0 0 0-.32.35c-.08.15-.11.32-.11.53V76h-1.52Zm9.15 0v-7.27h1.51v2.73h.05c.07-.15.16-.3.29-.45.13-.15.3-.28.5-.38a2.05 2.05 0 0 1 2.67 1.09c.2.42.3.93.3 1.56 0 .6-.1 1.12-.3 1.54a2.04 2.04 0 0 1-1.92 1.27c-.28 0-.53-.05-.74-.15-.2-.1-.37-.22-.5-.36-.13-.15-.23-.3-.3-.45h-.07V76h-1.49Zm1.48-2.73c0 .33.05.61.14.85.09.24.22.43.39.57.17.13.38.2.62.2.25 0 .45-.07.63-.2.17-.14.3-.33.38-.58.1-.24.14-.52.14-.84 0-.31-.05-.59-.13-.83a1.24 1.24 0 0 0-.4-.56.98.98 0 0 0-.62-.2 1 1 0 0 0-.63.2c-.16.12-.3.3-.38.55a2.4 2.4 0 0 0-.14.84Zm7.32 2.84a2.8 2.8 0 0 1-1.44-.36 2.4 2.4 0 0 1-.92-.98 3.18 3.18 0 0 1-.33-1.48c0-.56.11-1.05.33-1.47.22-.43.52-.76.93-.99.4-.24.87-.36 1.43-.36.55 0 1.02.12 1.42.36.4.23.72.56.93.99.22.42.33.91.33 1.47 0 .56-.1 1.05-.33 1.48a2.4 2.4 0 0 1-.93.98c-.4.24-.87.36-1.42.36Zm0-1.18c.25 0 .46-.07.63-.2.17-.15.3-.35.38-.6.09-.25.13-.53.13-.85 0-.31-.04-.6-.13-.85a1.31 1.31 0 0 0-.38-.58.93.93 0 0 0-.63-.22.96.96 0 0 0-.64.22c-.17.14-.3.34-.38.58-.09.25-.13.54-.13.85 0 .32.04.6.13.85.08.25.21.45.38.6.18.13.39.2.64.2Zm5.18-6.2V76h-1.52v-7.27h1.52Zm3.58 5.23a4.7 4.7 0 0 1 1-3.14h1.01a3.1 3.1 0 0 0-.36.6 5.38 5.38 0 0 0-.48 1.65 5.76 5.76 0 0 0 .05 2.08c.08.4.19.77.32 1.11.14.35.3.63.47.85h-1.01a4.7 4.7 0 0 1-.76-1.45 5.63 5.63 0 0 1-.24-1.7Zm2.63 2.04v-3.82h1.06V76h-1.06Zm.53-4.31a.58.58 0 0 1-.4-.16.5.5 0 0 1-.17-.38.5.5 0 0 1 .16-.37c.12-.1.25-.16.4-.16.17 0 .3.05.41.16a.5.5 0 0 1 0 .76.57.57 0 0 1-.4.15Zm3.58-.78V76h-1.08v-4.07h-.03l-1.16.73v-.95l1.26-.8h1Zm3 3.05a5.6 5.6 0 0 1-.25 1.7c-.16.52-.41 1-.75 1.45h-1.01c.13-.17.25-.37.36-.6a5.53 5.53 0 0 0 .48-1.66 5.8 5.8 0 0 0-.38-3.2c-.13-.34-.29-.62-.46-.84h1c.35.45.6.93.76 1.45.17.52.25 1.08.25 1.7ZM272.54 96v-3.82h.56v.6h.05c.08-.2.21-.36.39-.48.18-.11.39-.17.64-.17s.46.06.63.17c.17.12.3.27.4.48h.03c.1-.2.25-.36.44-.47.2-.12.43-.18.7-.18.35 0 .63.1.84.32.22.21.33.55.33 1V96h-.59v-2.56c0-.28-.07-.48-.23-.6a.85.85 0 0 0-.54-.18.8.8 0 0 0-.63.24.87.87 0 0 0-.22.61V96h-.6v-2.62c0-.21-.07-.39-.2-.52a.76.76 0 0 0-.55-.2.8.8 0 0 0-.43.12.92.92 0 0 0-.32.34 1 1 0 0 0-.12.5V96h-.58Zm7.2.09c-.24 0-.46-.05-.65-.14-.2-.09-.36-.22-.47-.4a1.13 1.13 0 0 1-.18-.63c0-.22.05-.4.13-.54.09-.13.2-.24.35-.32.14-.08.3-.13.47-.17a5.83 5.83 0 0 1 1.1-.16.87.87 0 0 0 .32-.09c.06-.03.1-.1.1-.2v-.02a.78.78 0 0 0-.2-.57c-.14-.13-.34-.2-.6-.2-.29 0-.5.06-.67.18a1.1 1.1 0 0 0-.33.4l-.56-.2a1.34 1.34 0 0 1 .95-.82 2.27 2.27 0 0 1 1-.03c.17.02.32.08.47.17.15.1.28.23.38.4.1.19.14.43.14.73V96h-.58v-.52h-.03a1.15 1.15 0 0 1-.57.5c-.16.08-.34.1-.57.1Zm.1-.53c.23 0 .42-.04.58-.13a.94.94 0 0 0 .49-.81v-.54c-.03.03-.08.06-.17.08a2.75 2.75 0 0 1-.6.11l-.25.03c-.15.02-.3.05-.42.1a.73.73 0 0 0-.32.2.5.5 0 0 0-.12.35c0 .2.07.35.23.46.15.1.34.15.57.15Zm2.73.44v-3.82h.58V96h-.58Zm.3-4.45a.42.42 0 0 1-.3-.12.38.38 0 0 1-.12-.28c0-.11.04-.2.12-.28a.42.42 0 0 1 .3-.12.4.4 0 0 1 .29.12c.08.07.12.17.12.28a.4.4 0 0 1-.42.4Zm1.94 2.15V96h-.58v-3.82h.56v.6h.05c.1-.2.23-.35.41-.47.18-.12.42-.18.7-.18.26 0 .5.06.69.16.19.1.34.26.45.48.1.21.16.48.16.8V96h-.59v-2.39c0-.3-.08-.53-.23-.7a.83.83 0 0 0-.64-.25c-.19 0-.36.04-.5.12a.87.87 0 0 0-.35.36c-.08.15-.13.34-.13.56Zm3.94 2.34a.43.43 0 0 1-.32-.13.43.43 0 0 1-.13-.32c0-.12.05-.23.13-.31.1-.1.2-.14.32-.14s.23.05.31.14c.1.08.14.19.14.31 0 .08-.02.16-.07.23a.47.47 0 0 1-.16.16.42.42 0 0 1-.22.06Zm0-2.83a.43.43 0 0 1-.32-.14.43.43 0 0 1-.13-.31c0-.12.05-.23.13-.32.1-.08.2-.13.32-.13s.23.05.31.13c.1.1.14.2.14.32 0 .08-.02.15-.07.22a.47.47 0 0 1-.16.17.42.42 0 0 1-.22.06ZM292.1 96v-3.82h1.01v.68h.05c.08-.23.2-.4.4-.53.18-.13.4-.2.66-.2s.49.07.67.2c.18.13.3.3.37.53h.04c.07-.22.22-.4.42-.53.2-.13.45-.2.73-.2.36 0 .64.12.87.34.22.23.33.55.33.96V96h-1.05v-2.36c0-.21-.06-.37-.17-.48A.6.6 0 0 0 296 93c-.19 0-.34.07-.45.19a.7.7 0 0 0-.16.48V96h-1.02v-2.38a.62.62 0 0 0-.17-.45.55.55 0 0 0-.42-.17.59.59 0 0 0-.54.34.8.8 0 0 0-.08.37V96h-1.06Zm8.31-5.1V96h-1.07v-4.07h-.03l-1.17.73v-.95l1.26-.8h1.01Z" fill="#fff"/>
  <rect x="260" y="161" width="120" height="51" rx="5" fill="#E08BB2"/>
  <path d="M274.17 170.73V178h-1.54v-7.27h1.54Zm2.75 4.12V178h-1.51v-5.46h1.44v.97h.06c.12-.32.32-.57.6-.75.3-.2.64-.29 1.04-.29.38 0 .71.09 1 .25.27.17.5.4.65.71.16.3.24.67.24 1.1V178h-1.52v-3.2c0-.34-.08-.6-.25-.78a.91.91 0 0 0-.72-.29c-.2 0-.38.05-.54.13a.91.91 0 0 0-.36.39c-.09.16-.13.36-.13.6Zm9.25-.75-1.39.09a.73.73 0 0 0-.15-.32.8.8 0 0 0-.31-.23 1.04 1.04 0 0 0-.45-.1c-.24 0-.43.06-.6.16-.16.1-.24.22-.24.39 0 .13.06.24.16.33.1.09.28.16.54.21l.98.2c.53.11.93.29 1.19.53.26.24.39.56.39.95 0 .36-.1.67-.32.94-.2.27-.5.48-.86.63-.36.15-.78.23-1.25.23-.72 0-1.3-.15-1.73-.45-.42-.3-.67-.72-.74-1.24l1.48-.08c.05.22.16.39.33.5.17.12.4.18.66.18.27 0 .48-.06.64-.16.17-.1.25-.23.25-.4a.42.42 0 0 0-.17-.34 1.25 1.25 0 0 0-.53-.2l-.94-.19c-.54-.1-.93-.29-1.2-.55-.25-.27-.38-.6-.38-1 0-.36.1-.66.29-.91.19-.26.46-.45.8-.59.35-.14.76-.2 1.22-.2.7 0 1.23.14 1.63.43.4.3.63.69.7 1.2Zm3.97-1.56v1.14h-3.28v-1.14h3.28Zm-2.53-1.3h1.5v5.08c0 .14.03.25.07.33.04.08.1.13.18.16.08.03.17.05.27.05.07 0 .14 0 .21-.02l.17-.03.23 1.12a4.77 4.77 0 0 1-.82.14 2.3 2.3 0 0 1-.96-.14 1.34 1.34 0 0 1-.63-.52 1.59 1.59 0 0 1-.22-.89v-5.28Zm5.07 6.86c-.34 0-.65-.06-.93-.18a1.5 1.5 0 0 1-.64-.54 1.63 1.63 0 0 1-.24-.9c0-.3.06-.56.17-.77.11-.2.26-.37.45-.5.2-.12.41-.21.66-.28.24-.06.5-.1.77-.13a20 20 0 0 0 .77-.1c.2-.03.33-.07.42-.13a.3.3 0 0 0 .13-.26v-.02c0-.23-.07-.4-.21-.53-.14-.12-.34-.18-.6-.18-.27 0-.49.06-.65.18a.83.83 0 0 0-.32.45l-1.4-.12a1.9 1.9 0 0 1 1.23-1.42 3.5 3.5 0 0 1 2.02-.1c.28.08.53.2.74.34a1.6 1.6 0 0 1 .7 1.41V178h-1.43v-.76h-.04a1.56 1.56 0 0 1-.88.76c-.2.07-.45.1-.72.1Zm.44-1.04c.22 0 .42-.05.59-.13.17-.1.3-.21.4-.37.1-.15.14-.32.14-.51v-.58a.83.83 0 0 1-.2.09 3.82 3.82 0 0 1-.57.12l-.28.04c-.18.02-.33.06-.46.12a.74.74 0 0 0-.31.23.56.56 0 0 0-.11.36c0 .2.07.36.22.47.15.1.35.16.58.16Zm5.32-2.21V178h-1.51v-5.46h1.44v.97h.07c.12-.32.32-.57.6-.75.29-.2.63-.29 1.04-.29.38 0 .7.09.99.25.28.17.5.4.65.71.16.3.24.67.24 1.1V178h-1.51v-3.2c0-.34-.09-.6-.26-.78a.92.92 0 0 0-.71-.29c-.2 0-.39.05-.54.13a.92.92 0 0 0-.37.39c-.08.16-.13.36-.13.6Zm7.18 3.26a2.8 2.8 0 0 1-1.45-.36 2.4 2.4 0 0 1-.92-1 3.21 3.21 0 0 1-.32-1.46c0-.55.1-1.04.32-1.47.22-.42.53-.75.93-.99s.88-.36 1.43-.36c.47 0 .89.1 1.25.26a2.09 2.09 0 0 1 1.2 1.83h-1.44a1.1 1.1 0 0 0-.32-.65.91.91 0 0 0-.67-.26c-.23 0-.44.07-.61.2-.17.12-.3.3-.4.55-.1.24-.15.53-.15.87 0 .35.04.65.14.9.1.23.23.42.4.55.18.13.39.19.62.19a1 1 0 0 0 .47-.1.89.89 0 0 0 .34-.32c.1-.13.16-.3.18-.49h1.43c-.02.42-.14.78-.34 1.1-.2.32-.48.56-.83.74-.36.18-.78.27-1.26.27Zm5.89 0c-.57 0-1.05-.12-1.45-.34-.4-.23-.72-.56-.93-.98a3.22 3.22 0 0 1-.33-1.5c0-.55.1-1.05.33-1.47.21-.42.52-.75.92-.99s.86-.36 1.4-.36c.36 0 .69.06 1 .18a2.24 2.24 0 0 1 1.36 1.38c.13.34.2.75.2 1.21v.42h-4.6v-.94h3.17c0-.22-.04-.4-.14-.58-.1-.16-.22-.3-.4-.4-.16-.09-.35-.14-.57-.14a1.14 1.14 0 0 0-1.02.58c-.1.18-.15.38-.15.6v.88c0 .27.04.5.14.7.1.2.25.35.43.46.19.1.4.16.66.16.17 0 .32-.03.46-.07a.93.93 0 0 0 .59-.56l1.4.09c-.07.33-.22.63-.44.88s-.5.44-.85.58c-.34.14-.74.2-1.18.2Zm9.77-5.3a.9.9 0 0 0-.36-.66c-.22-.16-.5-.24-.88-.24-.25 0-.46.04-.63.11a.89.89 0 0 0-.4.29.69.69 0 0 0-.14.42c0 .13.03.24.08.34.07.1.15.18.26.25.1.07.23.13.37.18.14.05.29.1.44.13l.66.16c.31.07.6.16.87.28.27.12.5.26.69.44a1.83 1.83 0 0 1 .62 1.41c0 .45-.12.83-.34 1.16-.23.32-.55.58-.97.76a3.9 3.9 0 0 1-1.52.26 4 4 0 0 1-1.53-.27 2.25 2.25 0 0 1-1.01-.8c-.25-.35-.37-.79-.38-1.31h1.48c.02.24.09.44.21.6.13.17.3.29.5.37.21.08.45.12.72.12.26 0 .48-.03.68-.11.19-.07.34-.18.45-.32.1-.13.16-.29.16-.46a.6.6 0 0 0-.15-.41 1.1 1.1 0 0 0-.42-.29c-.18-.07-.4-.15-.67-.21l-.8-.2a3.32 3.32 0 0 1-1.44-.7 1.62 1.62 0 0 1-.53-1.28c0-.44.11-.83.35-1.16.24-.32.56-.58.98-.76.42-.19.9-.28 1.42-.28.54 0 1.01.09 1.42.28.4.18.71.44.94.77.22.32.34.7.35 1.14h-1.48Zm3.52 7.23a2.97 2.97 0 0 1-.95-.15l.34-1.13c.17.05.33.08.48.09.14 0 .26-.03.37-.1.1-.07.2-.2.26-.36l.09-.23-1.96-5.62h1.6l1.12 4.01h.06l1.14-4h1.6l-2.12 6.04c-.1.3-.24.55-.42.77-.17.22-.39.39-.65.5a2.3 2.3 0 0 1-.96.18Zm4.92-2.04v-5.46h1.44v.97h.07c.11-.32.3-.57.57-.76.26-.18.58-.28.95-.28s.7.1.95.28c.27.19.44.44.53.76h.06c.1-.31.3-.56.6-.75.3-.2.64-.29 1.04-.29.5 0 .92.17 1.24.5.32.31.48.77.48 1.36V178h-1.51v-3.37c0-.3-.08-.53-.24-.68a.85.85 0 0 0-.6-.23.8.8 0 0 0-.65.26.99.99 0 0 0-.23.69V178h-1.47v-3.4a.88.88 0 0 0-.23-.64.8.8 0 0 0-.6-.24.83.83 0 0 0-.45.13.88.88 0 0 0-.32.35c-.08.15-.11.33-.11.53V178h-1.52Zm9.15 0v-7.27h1.51v2.73h.05c.07-.15.16-.3.29-.45.13-.15.3-.28.5-.38a2.05 2.05 0 0 1 2.67 1.09c.2.41.3.94.3 1.56 0 .6-.1 1.12-.3 1.54a2.04 2.04 0 0 1-1.92 1.27c-.28 0-.53-.05-.74-.15-.2-.1-.37-.22-.5-.36-.13-.15-.23-.3-.3-.45h-.07v.87h-1.49Zm1.48-2.73c0 .33.05.61.14.85.09.24.22.43.39.57.17.13.38.2.62.2.25 0 .45-.07.63-.2.17-.15.3-.33.38-.58.1-.24.14-.52.14-.84 0-.31-.05-.59-.13-.83a1.25 1.25 0 0 0-.4-.56.98.98 0 0 0-.62-.2 1 1 0 0 0-.63.2c-.16.12-.3.3-.38.55a2.4 2.4 0 0 0-.14.84Zm7.32 2.84a2.8 2.8 0 0 1-1.44-.36c-.4-.23-.7-.56-.92-.98a3.18 3.18 0 0 1-.33-1.48c0-.56.11-1.05.33-1.47.22-.43.52-.76.93-.99.4-.24.87-.36 1.43-.36.55 0 1.02.12 1.42.36.4.23.72.56.93.99.22.42.33.91.33 1.47 0 .56-.1 1.05-.33 1.48a2.4 2.4 0 0 1-.93.98c-.4.24-.87.36-1.42.36Zm0-1.18c.25 0 .46-.07.63-.2.17-.15.3-.35.38-.6.09-.25.13-.53.13-.85 0-.31-.04-.6-.13-.84a1.31 1.31 0 0 0-.38-.6.93.93 0 0 0-.63-.21.97.97 0 0 0-.64.22c-.17.14-.3.34-.38.59-.09.24-.13.53-.13.84 0 .32.04.6.13.85.08.25.21.45.38.6.18.13.39.2.64.2Zm5.18-6.2V178h-1.52v-7.27h1.52Zm3.58 5.23a4.7 4.7 0 0 1 1-3.14h1.01c-.13.16-.25.36-.36.6a5.4 5.4 0 0 0-.48 1.65 5.75 5.75 0 0 0 .05 2.08c.08.4.19.77.32 1.11.14.35.3.63.47.85h-1.01a4.7 4.7 0 0 1-.76-1.45 5.63 5.63 0 0 1-.24-1.7Zm2.63 2.04v-3.82h1.06V178h-1.06Zm.53-4.31a.58.58 0 0 1-.4-.16.5.5 0 0 1-.17-.38.5.5 0 0 1 .16-.37c.12-.1.25-.16.4-.16.17 0 .3.05.41.16a.5.5 0 0 1 0 .76.57.57 0 0 1-.4.15Zm1.36 4.31v-.78l1.82-1.67.38-.4c.11-.13.19-.24.25-.36a.88.88 0 0 0 .08-.37.7.7 0 0 0-.1-.39.66.66 0 0 0-.28-.25.87.87 0 0 0-.4-.09c-.16 0-.3.03-.41.1a.65.65 0 0 0-.27.27.87.87 0 0 0-.1.42h-1.02a1.51 1.51 0 0 1 .86-1.44c.28-.13.59-.2.94-.2.37 0 .69.06.96.2.27.12.48.3.63.53.15.22.23.48.23.78 0 .19-.04.38-.12.56-.07.2-.2.4-.4.63-.2.23-.46.5-.81.82l-.75.72v.04h2.14v.88h-3.63Zm6.2-2.04c0 .62-.07 1.19-.24 1.7-.17.52-.42 1-.76 1.45h-1a5.55 5.55 0 0 0 .85-2.25 5.93 5.93 0 0 0-.86-4.04h1.01c.34.44.6.92.76 1.44.16.52.25 1.08.25 1.7ZM272.55 198v-3.82h.56v.6h.05c.08-.2.21-.36.39-.48.18-.11.39-.17.64-.17s.46.06.63.17c.17.12.3.27.4.48h.03c.1-.2.25-.35.44-.47.2-.12.43-.18.7-.18.35 0 .63.1.84.32.22.22.33.55.33 1V198h-.59v-2.56c0-.28-.07-.48-.23-.6a.85.85 0 0 0-.54-.18.8.8 0 0 0-.63.24.87.87 0 0 0-.22.61V198h-.6v-2.62c0-.21-.07-.39-.2-.52a.76.76 0 0 0-.55-.2.8.8 0 0 0-.43.12.92.92 0 0 0-.32.34 1 1 0 0 0-.12.5V198h-.58Zm7.2.09c-.24 0-.46-.05-.65-.14-.2-.09-.36-.22-.47-.4a1.13 1.13 0 0 1-.18-.63c0-.22.05-.4.13-.54.09-.13.2-.24.35-.32.14-.08.3-.13.47-.17a5.7 5.7 0 0 1 1.1-.16.84.84 0 0 0 .32-.09c.06-.03.1-.1.1-.2v-.01a.78.78 0 0 0-.2-.58c-.14-.13-.34-.2-.6-.2-.29 0-.5.06-.67.18a1.1 1.1 0 0 0-.33.4l-.56-.2a1.34 1.34 0 0 1 .95-.82 2.27 2.27 0 0 1 1-.03c.17.03.32.08.47.17.15.1.28.23.38.4.1.19.14.43.14.73V198h-.58v-.52h-.03a1.15 1.15 0 0 1-.57.5c-.16.08-.34.1-.57.1Zm.1-.53c.23 0 .42-.04.58-.13a.94.94 0 0 0 .49-.81v-.54c-.03.03-.08.06-.17.08a2.75 2.75 0 0 1-.6.11l-.25.03c-.15.02-.3.05-.42.1a.73.73 0 0 0-.32.2.5.5 0 0 0-.12.35c0 .2.07.35.23.46.15.1.34.15.57.15Zm2.73.44v-3.82h.58V198h-.58Zm.3-4.46a.42.42 0 0 1-.3-.11.38.38 0 0 1-.12-.28c0-.11.04-.2.12-.28a.42.42 0 0 1 .3-.12.4.4 0 0 1 .29.12c.08.07.12.17.12.28 0 .1-.04.2-.12.28a.4.4 0 0 1-.3.11Zm1.94 2.16v2.3h-.58v-3.82h.56v.6h.05c.1-.2.23-.35.41-.47.18-.12.42-.18.7-.18.26 0 .5.06.69.16.19.1.34.27.45.48.1.21.16.48.16.8V198h-.59v-2.39c0-.3-.08-.53-.23-.7a.83.83 0 0 0-.64-.25c-.19 0-.36.04-.5.12a.87.87 0 0 0-.35.36c-.08.15-.13.34-.13.56Zm3.94 2.34a.43.43 0 0 1-.32-.13.43.43 0 0 1-.13-.32c0-.12.05-.23.13-.31.1-.1.2-.13.32-.13s.23.04.31.13c.1.08.14.19.14.31 0 .08-.02.16-.07.23a.46.46 0 0 1-.16.16.42.42 0 0 1-.22.06Zm0-2.83a.43.43 0 0 1-.32-.14.43.43 0 0 1-.13-.31c0-.12.05-.23.13-.32.1-.09.2-.13.32-.13s.23.04.31.13c.1.1.14.2.14.32 0 .08-.02.15-.07.22a.46.46 0 0 1-.16.17.42.42 0 0 1-.22.06Zm3.35 2.79v-3.82h1.01v.67h.05c.08-.22.2-.4.4-.52.18-.13.4-.2.66-.2s.49.07.67.2c.18.13.3.3.37.52h.04c.07-.21.22-.39.42-.52.2-.13.45-.2.73-.2.36 0 .64.12.87.34.22.23.33.55.33.96V198h-1.05v-2.36c0-.21-.06-.37-.17-.48a.6.6 0 0 0-.43-.16c-.19 0-.34.07-.45.19a.7.7 0 0 0-.16.48V198h-1.02v-2.38a.62.62 0 0 0-.17-.45.55.55 0 0 0-.42-.16.58.58 0 0 0-.54.33.8.8 0 0 0-.08.37V198h-1.06Zm8.31-5.1v5.1h-1.07v-4.07h-.03l-1.17.73v-.95l1.26-.8h1.01Z" fill="#fff"/>
  <rect x="28" y="110" width="120" height="51" rx="5" fill="#D066A5"/>
  <path d="M40.63 119.73h1.9l2 4.88h.09l2-4.88h1.9V127h-1.5v-4.73h-.06l-1.88 4.7h-1.01l-1.89-4.72h-.06V127h-1.49v-7.27Zm10.68 7.37c-.35 0-.66-.06-.93-.18a1.5 1.5 0 0 1-.65-.54 1.63 1.63 0 0 1-.23-.9c0-.3.05-.56.17-.77.1-.2.26-.37.45-.5.2-.12.4-.21.65-.28.25-.06.5-.1.78-.13l.76-.1c.2-.03.34-.07.43-.13a.3.3 0 0 0 .13-.26v-.02c0-.23-.07-.4-.21-.53a.87.87 0 0 0-.6-.18c-.27 0-.49.06-.65.18a.83.83 0 0 0-.32.45l-1.4-.12a1.9 1.9 0 0 1 1.23-1.42 3.5 3.5 0 0 1 2.02-.1c.28.08.52.2.74.34a1.6 1.6 0 0 1 .7 1.41V127h-1.43v-.76h-.05a1.56 1.56 0 0 1-.88.76c-.2.07-.44.1-.71.1Zm.43-1.04c.23 0 .42-.05.6-.13.16-.1.3-.21.4-.37.1-.15.14-.32.14-.51v-.58a.84.84 0 0 1-.2.09 3.76 3.76 0 0 1-.58.12l-.27.04c-.18.02-.33.06-.47.12a.75.75 0 0 0-.3.23.56.56 0 0 0-.12.36c0 .2.08.36.23.47.15.1.34.16.57.16Zm3.81.94v-5.45h1.52V127h-1.52Zm.76-6.16a.82.82 0 0 1-.57-.22.73.73 0 0 1 0-1.08.82.82 0 0 1 .57-.23.8.8 0 0 1 .58.23.72.72 0 0 1 0 1.08.81.81 0 0 1-.58.22Zm3.48 3V127h-1.51v-5.45h1.44v.96h.07c.12-.32.32-.57.6-.76.29-.18.63-.28 1.04-.28.37 0 .7.09.99.25.28.17.5.4.65.71.16.3.24.67.24 1.1V127H61.8v-3.2c0-.34-.09-.6-.26-.78a.92.92 0 0 0-.71-.29c-.2 0-.39.05-.54.13a.92.92 0 0 0-.37.39c-.08.16-.13.36-.13.6Zm11-2.02a.9.9 0 0 0-.37-.67c-.21-.16-.5-.24-.87-.24-.26 0-.47.04-.64.11a.9.9 0 0 0-.4.29.69.69 0 0 0-.13.42c0 .13.02.24.08.34.06.1.14.18.25.25.1.07.23.13.37.18.14.05.29.1.45.13l.65.16c.32.07.6.16.87.28.27.12.5.26.7.44a1.82 1.82 0 0 1 .61 1.41 2 2 0 0 1-.34 1.16c-.22.33-.54.58-.97.76-.41.17-.92.26-1.51.26a4 4 0 0 1-1.54-.27 2.25 2.25 0 0 1-1.01-.8c-.24-.35-.37-.79-.38-1.31h1.49c.01.24.08.44.2.6.13.17.3.29.5.37.22.08.46.12.72.12.26 0 .49-.03.68-.11.2-.08.34-.18.45-.32.1-.13.16-.29.16-.46a.6.6 0 0 0-.15-.41 1.1 1.1 0 0 0-.41-.29c-.19-.08-.41-.15-.68-.21l-.79-.2a3.32 3.32 0 0 1-1.45-.7 1.62 1.62 0 0 1-.53-1.28c0-.44.12-.83.35-1.16.24-.32.57-.58.99-.77.41-.18.89-.27 1.42-.27.54 0 1 .09 1.4.28a2.04 2.04 0 0 1 1.3 1.91H70.8Zm3.51 7.22a2.98 2.98 0 0 1-.95-.15l.34-1.13c.18.05.34.08.48.09.14 0 .27-.03.37-.1.1-.07.2-.2.26-.36l.1-.23-1.97-5.61h1.6l1.12 4h.06l1.14-4h1.6l-2.12 6.04c-.1.3-.24.55-.41.77-.18.22-.4.39-.66.5a2.3 2.3 0 0 1-.96.18Zm4.93-2.04v-5.45h1.44v.96h.06a1.52 1.52 0 0 1 1.52-1.04c.38 0 .7.1.96.28.26.19.44.44.52.76h.06c.11-.32.31-.56.6-.75.3-.2.64-.29 1.04-.29.51 0 .93.17 1.24.5.32.31.48.77.48 1.36V127h-1.5v-3.37c0-.3-.09-.53-.25-.68a.85.85 0 0 0-.6-.23.8.8 0 0 0-.64.26.99.99 0 0 0-.24.69V127h-1.46v-3.4a.88.88 0 0 0-.23-.64.8.8 0 0 0-.6-.24.83.83 0 0 0-.46.13.88.88 0 0 0-.31.35c-.08.15-.12.33-.12.53V127h-1.51Zm9.15 0v-7.27h1.5v2.73h.06c.06-.14.16-.3.28-.45.13-.15.3-.28.5-.38a2.05 2.05 0 0 1 2.67 1.09c.2.42.3.94.3 1.56 0 .6-.1 1.12-.29 1.54a2.04 2.04 0 0 1-1.92 1.27c-.29 0-.54-.05-.75-.15-.2-.1-.37-.22-.5-.36-.13-.15-.23-.3-.3-.45h-.06v.87h-1.5Zm1.48-2.73c0 .33.04.61.13.85.1.24.22.43.4.57.16.13.37.2.61.2.25 0 .46-.07.63-.2.17-.14.3-.33.39-.58.09-.24.13-.52.13-.84 0-.31-.04-.59-.13-.83a1.24 1.24 0 0 0-.39-.56.98.98 0 0 0-.63-.2 1 1 0 0 0-.62.2c-.17.12-.3.3-.39.55a2.4 2.4 0 0 0-.13.84Zm7.31 2.84a2.8 2.8 0 0 1-1.43-.36 2.4 2.4 0 0 1-.93-.98 3.18 3.18 0 0 1-.32-1.48c0-.56.1-1.05.32-1.47.22-.43.53-.76.93-.99.4-.24.88-.36 1.43-.36.55 0 1.03.12 1.43.36.4.23.71.56.93.99.22.42.32.91.32 1.47 0 .56-.1 1.05-.32 1.48a2.4 2.4 0 0 1-.93.98c-.4.24-.88.36-1.43.36Zm0-1.17c.26 0 .47-.08.64-.22.16-.14.29-.34.38-.59.08-.25.13-.53.13-.85 0-.31-.05-.6-.13-.84a1.32 1.32 0 0 0-.38-.6.93.93 0 0 0-.63-.21.97.97 0 0 0-.64.22c-.17.14-.3.34-.39.59a2.6 2.6 0 0 0-.13.84c0 .32.05.6.13.85.09.25.22.45.39.6.17.13.38.2.64.2Zm5.18-6.21V127h-1.51v-7.27h1.51Zm3.58 5.23c0-.62.08-1.18.25-1.7.16-.52.41-1 .75-1.45h1.02c-.13.17-.25.37-.37.6a5.4 5.4 0 0 0-.48 1.66 5.88 5.88 0 0 0 .85 4.04h-1.02a4.7 4.7 0 0 1-.75-1.45 5.63 5.63 0 0 1-.25-1.7Zm2.63 2.04v-3.82h1.01v.67h.04c.08-.22.22-.4.4-.52.19-.13.41-.2.67-.2.26 0 .48.07.67.2.18.13.3.3.37.53h.03c.08-.22.22-.4.43-.53.2-.13.44-.2.72-.2.36 0 .65.12.87.34.23.23.34.55.34.96V127h-1.06v-2.36c0-.21-.05-.37-.17-.48a.6.6 0 0 0-.42-.16c-.2 0-.34.07-.45.19a.7.7 0 0 0-.16.48V127h-1.03v-2.38a.62.62 0 0 0-.16-.45.55.55 0 0 0-.42-.17.58.58 0 0 0-.54.34.8.8 0 0 0-.08.37V127h-1.06Zm8.31-5.1v5.1h-1.08v-4.07h-.03l-1.16.73v-.95l1.26-.8h1.01Zm3 3.06c0 .62-.08 1.19-.24 1.7-.17.52-.42 1-.76 1.45h-1.01c.13-.17.25-.37.36-.6a5.55 5.55 0 0 0 .48-1.66 5.93 5.93 0 0 0-.84-4.03h1.01c.34.44.6.92.76 1.44.16.52.24 1.08.24 1.7ZM40.54 147v-3.82h.58V147h-.58Zm.3-4.46a.42.42 0 0 1-.3-.11.38.38 0 0 1-.12-.28c0-.11.04-.2.12-.28a.42.42 0 0 1 .3-.12.4.4 0 0 1 .29.12c.08.07.12.17.12.28 0 .1-.04.2-.12.28a.4.4 0 0 1-.3.11Zm1.94 2.16v2.3h-.58v-3.82h.56v.6h.05c.1-.2.23-.35.41-.47.18-.12.42-.18.7-.18.27 0 .5.06.69.16.2.1.34.27.45.48.1.21.16.48.16.8V147h-.59v-2.39c0-.3-.07-.53-.23-.7a.83.83 0 0 0-.64-.25c-.19 0-.36.04-.5.12a.87.87 0 0 0-.35.36c-.08.15-.13.34-.13.56Zm6.22-.66-.53.15a.98.98 0 0 0-.15-.26.72.72 0 0 0-.25-.2.95.95 0 0 0-.42-.1 1 1 0 0 0-.59.17c-.15.1-.23.24-.23.4 0 .15.05.27.16.35.1.09.27.16.5.21l.56.14c.34.09.6.21.77.38.16.17.25.39.25.66 0 .22-.07.41-.2.58-.12.17-.29.31-.51.41-.23.1-.49.15-.78.15-.4 0-.72-.09-.97-.25a1.12 1.12 0 0 1-.49-.75l.56-.13c.05.2.15.36.3.46a1 1 0 0 0 .59.15c.27 0 .49-.06.65-.17.16-.12.24-.26.24-.42a.44.44 0 0 0-.14-.34.9.9 0 0 0-.43-.2l-.63-.15c-.35-.08-.6-.21-.77-.38a.94.94 0 0 1-.25-.66c0-.22.06-.41.18-.58.13-.16.3-.3.5-.39.22-.1.46-.14.73-.14.37 0 .67.09.88.25.22.17.38.38.47.66Zm2.61-.86v.5h-1.98v-.5h1.98Zm-1.4-.91h.59v3.64c0 .16.02.29.07.37.05.08.11.13.19.16.07.03.16.04.24.04a1 1 0 0 0 .16 0l.1-.03.12.53a1.19 1.19 0 0 1-.44.07c-.16 0-.33-.04-.48-.1a.97.97 0 0 1-.4-.33.94.94 0 0 1-.15-.56v-3.8Zm3.4 4.82c-.24 0-.45-.05-.65-.14-.2-.09-.36-.22-.47-.4a1.13 1.13 0 0 1-.18-.63c0-.22.05-.4.13-.54.09-.13.2-.24.35-.32.14-.08.3-.13.48-.17a5.66 5.66 0 0 1 1.09-.16.84.84 0 0 0 .32-.09c.07-.03.1-.1.1-.2v-.01a.78.78 0 0 0-.2-.58c-.13-.13-.34-.2-.6-.2-.29 0-.5.06-.66.18a1.1 1.1 0 0 0-.34.4l-.56-.2a1.34 1.34 0 0 1 .95-.82 2.27 2.27 0 0 1 1-.03c.17.03.32.08.47.17.15.1.28.23.38.4.1.19.15.43.15.73V147h-.59v-.52h-.03a1.15 1.15 0 0 1-.57.5c-.15.08-.34.1-.56.1Zm.1-.53c.23 0 .42-.04.58-.13a.93.93 0 0 0 .49-.81v-.54c-.02.03-.08.06-.16.08a2.76 2.76 0 0 1-.6.11l-.25.03c-.16.02-.3.05-.43.1a.73.73 0 0 0-.32.2.5.5 0 0 0-.12.35c0 .2.08.35.23.46.15.1.34.15.58.15Zm3.31-1.86v2.3h-.58v-3.82H57v.6h.05c.1-.2.23-.35.41-.47.18-.12.42-.18.7-.18.27 0 .5.06.69.16.19.1.34.27.45.48.1.21.16.48.16.8V147h-.59v-2.39c0-.3-.07-.53-.23-.7a.83.83 0 0 0-.64-.25c-.19 0-.36.04-.5.12a.87.87 0 0 0-.35.36c-.08.15-.13.34-.13.56Zm5.06 2.38c-.35 0-.66-.09-.92-.25-.26-.17-.46-.4-.6-.7-.14-.3-.2-.64-.2-1.02 0-.39.06-.73.2-1.03.15-.3.35-.53.6-.7.27-.16.57-.25.91-.25.27 0 .51.05.73.15.21.1.4.24.53.42.14.18.22.39.25.63H63a.9.9 0 0 0-.91-.67c-.24 0-.44.06-.6.18-.18.12-.31.28-.4.5-.1.21-.15.46-.15.75 0 .3.05.55.14.77.1.22.23.39.4.51s.37.18.6.18c.16 0 .3-.02.42-.08a.85.85 0 0 0 .5-.58h.58a1.35 1.35 0 0 1-.76 1.03c-.2.1-.46.16-.74.16Zm3.96 0a1.64 1.64 0 0 1-1.57-.93c-.14-.3-.2-.64-.2-1.03s.06-.74.2-1.03c.15-.3.35-.54.6-.7.27-.17.57-.26.91-.26.2 0 .4.03.6.1a1.46 1.46 0 0 1 .9.91c.1.25.14.55.14.9v.25h-2.94v-.5h2.35c0-.22-.05-.41-.13-.58a.97.97 0 0 0-.92-.55c-.23 0-.43.06-.6.17-.17.12-.3.27-.4.45-.08.18-.13.38-.13.6v.33c0 .29.05.53.15.73.1.2.24.35.42.46.18.1.39.15.62.15.16 0 .3-.02.42-.06a.9.9 0 0 0 .33-.2.9.9 0 0 0 .2-.33l.57.16c-.06.19-.16.36-.3.5-.14.15-.31.26-.52.34-.2.08-.44.12-.7.12Zm5.18-3.04-.53.15a.98.98 0 0 0-.14-.26.72.72 0 0 0-.26-.2.95.95 0 0 0-.42-.1 1 1 0 0 0-.59.17c-.15.1-.23.24-.23.4 0 .15.06.27.16.35.1.09.27.16.5.21l.57.14c.34.09.6.21.76.38.17.17.25.39.25.66 0 .22-.06.41-.19.58-.12.17-.3.31-.52.41-.22.1-.48.15-.78.15-.39 0-.71-.09-.97-.25a1.12 1.12 0 0 1-.48-.75l.55-.13c.06.2.16.36.3.46a1 1 0 0 0 .59.15c.27 0 .49-.06.65-.17.16-.12.24-.26.24-.42a.44.44 0 0 0-.14-.34.9.9 0 0 0-.42-.2l-.64-.15c-.35-.08-.6-.21-.77-.38a.94.94 0 0 1-.24-.66c0-.22.06-.41.18-.58.12-.16.29-.3.5-.39.21-.1.45-.14.72-.14.38 0 .67.09.89.25.22.17.37.38.46.66Zm1.38 3a.43.43 0 0 1-.31-.13.43.43 0 0 1-.14-.32c0-.12.05-.23.14-.31.08-.1.19-.13.31-.13s.23.04.32.13c.08.08.13.19.13.31a.46.46 0 0 1-.22.39.42.42 0 0 1-.23.06Zm0-2.83a.43.43 0 0 1-.31-.14.43.43 0 0 1-.14-.31c0-.12.05-.23.14-.32.08-.09.19-.13.31-.13s.23.04.32.13c.08.1.13.2.13.32a.46.46 0 0 1-.22.39.42.42 0 0 1-.23.06Zm3.76 3.82v-6.36h1.47v.49h-.91v5.39h.91v.48h-1.47Zm4.1-1.03v-3.82h1.06V147h-1.06Zm.53-4.31a.58.58 0 0 1-.4-.16.5.5 0 0 1-.17-.38.5.5 0 0 1 .17-.37c.11-.1.25-.16.4-.16.16 0 .3.05.4.16.12.1.17.23.17.37a.5.5 0 0 1-.16.38.57.57 0 0 1-.4.16Zm3.58-.78V147H83.5v-4.07h-.03l-1.17.73v-.95l1.26-.8h1.01Zm2.21 4.4-.04.26a11.66 11.66 0 0 1-.46 1.67h-.44a123.7 123.7 0 0 0 .19-1l.09-.66.03-.28h.63Zm2.94.69v-3.82h1.06V147h-1.06Zm.54-4.31a.58.58 0 0 1-.41-.16.5.5 0 0 1-.17-.38.5.5 0 0 1 .17-.37c.11-.1.25-.16.4-.16.16 0 .3.05.4.16.12.1.18.23.18.37a.5.5 0 0 1-.17.38.57.57 0 0 1-.4.16Zm1.36 4.31v-.78l1.81-1.67.4-.4c.1-.13.18-.24.23-.36a.87.87 0 0 0 .08-.37.7.7 0 0 0-.1-.39.66.66 0 0 0-.28-.25.87.87 0 0 0-.4-.09c-.15 0-.29.03-.4.1a.65.65 0 0 0-.27.27.87.87 0 0 0-.1.42h-1.02a1.51 1.51 0 0 1 .86-1.44c.27-.13.59-.2.94-.2.37 0 .68.06.95.2a1.38 1.38 0 0 1 .86 1.31c0 .19-.04.38-.11.56-.08.2-.2.4-.4.63-.2.23-.47.5-.81.82l-.75.72v.04h2.14v.88h-3.63Zm7.68-5.33v6.36h-1.48v-.48h.92v-5.4h-.92v-.48h1.48Z" fill="#fff"/>
  <path d="M257.33 85a2.67 2.67 0 1 0 5.34 0 2.67 2.67 0 0 0-5.34 0Zm-112 51a2.67 2.67 0 1 0 5.34 0 2.67 2.67 0 0 0-5.34 0ZM241 85.5h19v-1h-19v1Zm-93 51h42v-1h-42v1Zm42 0a26 26 0 0 0 26-26h-1a25 25 0 0 1-25 25v1Zm51-52a26 26 0 0 0-26 26h1a25 25 0 0 1 25-25v-1Z" fill="#000"/>
  <path d="M257.33 187a2.67 2.67 0 1 1 5.34 0 2.67 2.67 0 0 1-5.34 0Zm-112-51a2.67 2.67 0 1 1 5.34 0 2.67 2.67 0 0 1-5.34 0ZM241 186.5h19v1h-19v-1Zm-93-51h42v1h-42v-1Zm42 0a26 26 0 0 1 26 26h-1a25 25 0 0 0-25-25v-1Zm51 52a26 26 0 0 1-26-26h1a25 25 0 0 0 25 25v1Z" fill="#000"/>
</svg>
