<svg xmlns="http://www.w3.org/2000/svg" fill="none" viewBox="0 0 79 79"><path fill="url(#a)" d="M39.6 77.1a37.5 37.5 0 1 0 0-75 37.5 37.5 0 0 0 0 75Z"/><path stroke="#fff" stroke-linecap="round" stroke-miterlimit="10" stroke-width="5" d="m40 19-14.58 8.79a6.36 6.36 0 0 0-2.82 5.33v14.13a6.14 6.14 0 0 0 3.12 5.13l11.21 5.8a6.12 6.12 0 0 0 6.14 0l11.41-6.3a6.09 6.09 0 0 0 3.12-5.13V33.12c0-1.28-1.4-2.07-2.52-1.48l-15.08 8"/><defs><linearGradient id="a" x1="2.1" x2="77.2" y1="39.6" y2="39.6" gradientUnits="userSpaceOnUse"><stop stop-color="#D7709E"/><stop offset="1" stop-color="#A84A87"/></linearGradient></defs></svg>