<svg xmlns="http://www.w3.org/2000/svg" fill="none" viewBox="0 0 79 79"><path stroke="#fff" stroke-width="4" d="M64.702 64.702a35.5 35.5 0 1 1-50.204-50.205 35.5 35.5 0 0 1 50.204 50.205Z"/><path stroke="#fff" stroke-linecap="round" stroke-miterlimit="10" stroke-width="5" d="m39.999 19-14.583 8.79a6.36 6.36 0 0 0-2.094 2.317 6.229 6.229 0 0 0-.722 3.016v14.124a6.14 6.14 0 0 0 .89 2.96 6.281 6.281 0 0 0 2.228 2.176l11.213 5.794A6.12 6.12 0 0 0 40 59a6.119 6.119 0 0 0 3.067-.823l11.415-6.288a6.085 6.085 0 0 0 2.254-2.161c.547-.901.845-1.926.864-2.975v-13.63c0-1.283-1.408-2.074-2.514-1.481l-15.086 8"/></svg>