<svg xmlns="http://www.w3.org/2000/svg" fill="none" viewBox="0 0 79 79"><path stroke="#000" stroke-width="4" d="M64.7023 64.7023a35.5 35.5 0 1 1-50.2046-50.2048 35.5 35.5 0 0 1 50.2046 50.2048Z"/><path stroke="#000" stroke-linecap="round" stroke-miterlimit="10" stroke-width="5" d="m39.999 19-14.583 8.7901c-.8831.5898-1.6028 1.3861-2.0944 2.3171a6.2287 6.2287 0 0 0-.7216 3.0162v14.1235a6.1403 6.1403 0 0 0 .8895 2.9598c.5449.8976 1.3112 1.6459 2.2282 2.176l11.2138 5.7946A6.1191 6.1191 0 0 0 39.999 59a6.1188 6.1188 0 0 0 3.0674-.8227l11.415-6.2884c.9298-.5156 1.7066-1.2605 2.2534-2.1613a5.9441 5.9441 0 0 0 .8643-2.9745V33.1235c0-1.284-1.408-2.0741-2.5143-1.4815l-15.0858 8"/></svg>