<svg xmlns="http://www.w3.org/2000/svg" fill="none" viewBox="0 0 76 76"><path fill="#000" fill-rule="evenodd" d="M64.117 64.117a37.5 37.5 0 1 1-53.034-53.034 37.5 37.5 0 0 1 53.034 53.034ZM39.29 19.14a2.5 2.5 0 1 0-2.582-4.282l-14.583 8.79-.05.03-.047.032a8.861 8.861 0 0 0-2.917 3.229 8.729 8.729 0 0 0-1.011 4.203V45.293l.002.047a8.64 8.64 0 0 0 1.25 4.164 8.78 8.78 0 0 0 3.115 3.043l.05.03.053.027 11.165 5.769a8.62 8.62 0 0 0 4.264 1.127c1.507 0 2.99-.394 4.295-1.145l11.394-6.276.006-.004a8.585 8.585 0 0 0 3.178-3.05 8.443 8.443 0 0 0 1.227-4.225V31.123c0-3.265-3.502-5.122-6.19-3.688l-.005.003-15.076 7.995a2.5 2.5 0 0 0 2.342 4.418l13.93-7.387v12.263a3.444 3.444 0 0 1-.502 1.703 3.584 3.584 0 0 1-1.326 1.271l-.003.002-11.409 6.284-.024.014-.023.013a3.619 3.619 0 0 1-1.814.486 3.62 3.62 0 0 1-1.814-.486l-.052-.03-.054-.028-11.155-5.764a3.78 3.78 0 0 1-1.297-1.283 3.642 3.642 0 0 1-.527-1.715V31.081a3.73 3.73 0 0 1 .432-1.806 3.858 3.858 0 0 1 1.23-1.377L39.29 19.14Z" clip-rule="evenodd"/></svg>