<svg height="324" viewBox="0 0 572 324" width="572" xmlns="http://www.w3.org/2000/svg"><g fill="none" fill-rule="evenodd"><g transform="translate(222 89)"><rect fill="#e67891" height="47" rx="4" width="124"/><text fill="#fff" font-family="Avenir-Book, Avenir" font-size="15"><tspan x="22.1375" y="15">type: image</tspan></text></g><g transform="matrix(.97437006 .22495105 -.22495105 .97437006 49.875406 112.655338)"><rect fill="#e67891" height="47" rx="4" width="124"/><text fill="#fff" font-family="Avenir-Book, Avenir" font-size="15"><tspan x="11.8625" y="15">type: new-type</tspan></text></g><g transform="translate(222 156)"><rect fill="#e67891" height="47" rx="4" width="124"/><text fill="#fff" font-family="Avenir-Book, Avenir" font-size="15"><tspan x="30.2075" y="15">type: text</tspan></text></g><g transform="translate(222 221)"><rect fill="#e67891" height="47" rx="4" width="124"/><text fill="#fff" font-family="Avenir-Book, Avenir" font-size="15"><tspan x="19.6475" y="15">type: default</tspan></text></g><text fill="#6e6e6e" font-family="Helvetica-Bold, Helvetica" font-size="15" font-weight="bold"><tspan x="201" y="41">Component Type Stack</tspan></text><path d="m94 113c.4283817-24 32.095048-36 95-36" stroke="#999"/><path d="m203 77.5-14 5.5v-11z" fill="#999"/><path d="m382 283.5-14 5.5v-11z" fill="#999" transform="matrix(0 1 -1 0 658.5 -91.5)"/><g fill="#6e6e6e"><text font-family="Helvetica" font-size="12"><tspan x="33.804688" y="214">New Component Type </tspan><tspan x="62.140625" y="228">goes on top</tspan></text><text font-family="Helvetica" font-size="12"><tspan x="396" y="231">The </tspan><tspan font-family="Helvetica-Bold, Helvetica" font-weight="bold" x="420.011719" y="231">default </tspan><tspan x="462.679688" y="231">is the last </tspan><tspan x="396" y="245">available type</tspan></text><text font-family="Helvetica" font-size="12"><tspan x="396" y="141">Each parsed element goes </tspan><tspan x="396" y="155">through the stack from TOP </tspan><tspan x="396" y="169">to BOTTOM</tspan></text></g><path d="m375.5 78.5v202.121251" stroke="#999" stroke-linecap="square"/><text font-family="Helvetica" font-size="12"><tspan fill="#e67891" x="396" y="86">&lt;span&gt;</tspan> <tspan fill="#6e6e6e" x="436.037109" y="86">New element</tspan> <tspan fill="#e67891" x="506.068359" y="86">&lt;/span&gt;</tspan></text></g></svg>