<?xml version="1.0" encoding="utf-8"?>
<!-- Generator: Adobe Illustrator 23.0.2, SVG Export Plug-In . SVG Version: 6.00 Build 0)  -->
<svg version="1.1" id="Layer_1" xmlns="http://www.w3.org/2000/svg" xmlns:xlink="http://www.w3.org/1999/xlink" x="0px" y="0px"
	 viewBox="0 0 796.2 367.3" style="enable-background:new 0 0 796.2 367.3;" xml:space="preserve">
<style type="text/css">
	.st0{clip-path:url(#SVGID_2_);fill:url(#SVGID_3_);}
</style>
<g>
	<defs>
		<path id="SVGID_1_" d="M725.8,212.1c0,0-6.5-9.1-8.5-11.7c-1.4-1.7-3.1-3.7-7.5-0.7c-9.9,6.6-21,12.7-34.7,12.7
			c-10.5,0-19.6-2.7-26.4-8.5c2.9-1.3,5.9-2.7,8.9-4.4c16.2-8.7,29.7-19.9,36.2-26.4c31.5-31.5,21.7-78.5-16.8-78.5
			c-36.3,0-64.9,35.3-64.9,74.6c0,5.9,0.7,14.4,3.2,23.3c-2.1,1-16.5,8-33.7,17.5c-16.2-12.1-41.4-6.7-41.4-6.7s0,0,0,0
			c23.4-33.3,58.7-85.2,61.7-89.5c2.2-3.1,1.8-6.1-0.3-10.9c-2.7-5.8-5.4-6.8-9-6.8h-73.3c-2.4,0-4.3,1.1-5,3.8
			c-0.7,2.7-2.2,12-2.5,15.1c-0.3,3.2,2.7,5.2,5.8,5.2h53.1l-48,68.7c-0.3,0.3-0.6,0.6-0.9,1c-7,10.1-17.7,24.2-30.5,24.2
			c-8,0-17.9-5.7-17.9-24.4c0-18.3,7.4-57,12.8-87.2c0.6-3.2-0.5-6.4-5.7-6.4h-13c-3,0-4.7,1.8-5.1,4.4c-0.8,4.6-1.6,9.1-2.3,13.5
			c-6.4-12.3-16.7-19.3-31.5-19.3c-13.8,0-27.2,5.1-38.2,16.1c-27.4,27.4-22.2,72.1-45.9,95.8c-10.2,10.2-21.7,7.1-21.7-13
			c0-22.9,8.8-48.5,18.8-72.7c1.8-4.3-0.1-7.9-2-10.6c-2.7-3.9-3.7-5.9-8.5-5.9c-7.5,0-19.4,4.7-43.3,4.7c-5.1,0-9.9-0.2-14.3-0.5
			c0.3-3.6,0.3-6,0.4-6.9c0.2-3.4-1-5.5-4.6-5.5h-12.2c-4.4,0-5.5,2.1-6,5.6c-2.1,14.6-6,68.3-33,95.2c-3.1,3.1-5,4.1-5,4.1
			c6.7-13.1,10.3-30.3,10.3-44c0-38.4-22.7-62.2-51.3-62.2c-8.7,0-17.9,2.8-26.6,8.2c4-23.4,7.7-45.3,9-52.7
			c1.1-6.3-1.1-9.5-2.8-12.1c-2.7-4.2-5.1-6.1-8.7-6.1h-42.2c-2.4,0-4.2,1.7-4.8,4.4c-0.7,3.1-2.2,11.3-2.4,15.1
			c-0.2,3.3,2.1,4.6,4.8,4.6h30.8c-4.9,30.2-14.3,88.7-17.1,103.4c-3.6,18.7-16.9,41.6-39.3,49.8c-2.8,1-3.9,3.6-2.9,6.6
			c1,3,4.9,10.8,6.1,12.8c1.2,2.1,3.8,3.4,6.2,2.6c11.6-4.1,22.3-10.7,30.7-19.1c2.1-2.1,4.1-4.4,6-6.9c10,22.6,30.6,30.8,51.5,30.8
			c23.7,0,49.3-8.3,67.3-26.2c21-21,29.7-55.6,33.5-80.2c5.2,0.7,11.1,1.3,16.8,1.3c14.4,0,26.5-3.1,26.5-3.1s-14.5,38.6-14.5,67
			c0,32.1,15.4,41.2,32.3,41.2c17.5,0,29.8-13.1,38.5-29.4c2.3,5.1,5.7,11.1,10.3,15.7c7.9,7.9,17.7,13.7,31.9,13.7
			c16.2,0,30.1-9.3,40-23.7c1.8,6.1,4.5,11.1,8.2,14.8c5,5,14.2,8.9,25.6,8.9c19.7,0,31.2-14.8,61.9-14.8c3.9,0,7.4,0.6,10.6,1.7
			c-14.1,8.6-27.5,17.8-35.7,26c-25.3,25.3-26.5,58.7-9.9,75.3c20.2,20.2,48.8,10,66.8-7.9c21-21,27.1-60.7,15-87.8
			c14.7-7.7,27-13.4,29.9-14.8c9.2,12.5,24.4,22.3,49.4,22.3c17.9,0,36-6.3,50.1-17C726.9,217.4,727.4,214.3,725.8,212.1z
			 M182.7,203.5c-5.7,5.7-12.7,8.8-19.8,8.8c-6.6,0-12.3-3-17.1-7.8c-16.2-16.2-14.8-56.1,6.1-77c5.9-5.9,13.1-9.3,20.4-9.3
			c6.6,0,12.3,2.9,17.1,7.7C204.6,141.2,205.5,180.7,182.7,203.5z M414.4,212.2c-17.5,0-28.9-21.1-25.4-47.1
			c3.5-26,20.5-47.1,38-47.1c16.2,0,27.2,18.1,26,41.4c-0.5,3.4-0.9,6.6-1.2,9.8C447.1,193.3,431,212.2,414.4,212.2z M560.1,303.8
			c-22.9,22.9-52.1-6.3-18-40.4c7.7-7.7,20.4-16.2,33.6-24C583.2,258,577.3,286.6,560.1,303.8z M652,128
			c17.2-17.2,36.3-12.1,36.3,4.6c0,16.3-19.5,33.9-43.1,47.5c-2.3,1.3-5,2.8-7.7,4.2c-0.9-4.1-1.4-8.6-1.4-13.7
			C636,156.6,641.9,138.1,652,128z"/>
	</defs>
	<clipPath id="SVGID_2_">
		<use xlink:href="#SVGID_1_"  style="overflow:visible;"/>
	</clipPath>
	<linearGradient id="SVGID_3_" gradientUnits="userSpaceOnUse" x1="85.9055" y1="363.9002" x2="710.2571" y2="3.4307">
		<stop  offset="0.13" style="stop-color:#3BCCDE"/>
		<stop  offset="0.64" style="stop-color:#F7918F"/>
		<stop  offset="0.6966" style="stop-color:#F8918A"/>
		<stop  offset="0.7662" style="stop-color:#F9927B"/>
		<stop  offset="0.8422" style="stop-color:#FC9362"/>
		<stop  offset="0.9" style="stop-color:#FF944A"/>
	</linearGradient>
	<rect x="69.4" y="32" class="st0" width="657.4" height="303.3"/>
</g>
</svg>
