<svg version="1" xmlns="http://www.w3.org/2000/svg" class="grapesjs-logo"><g id="gjs-logo"><path style="fill:none;stroke-linecap:round;stroke-linejoin:round;stroke-miterlimit:10;stroke-width:10;stroke:#fff" d="M40 5l-12.9 7.4 -12.9 7.4c-1.4 0.8-2.7 2.3-3.7 3.9 -0.9 1.6-1.5 3.5-1.5 5.1v14.9 14.9c0 1.7 0.6 3.5 1.5 5.1 0.9 1.6 2.2 3.1 3.7 3.9l12.9 7.4 12.9 7.4c1.4 0.8 3.3 1.2 5.2 1.2 1.9 0 3.8-0.4 5.2-1.2l12.9-7.4 12.9-7.4c1.4-0.8 2.7-2.2 3.7-3.9 0.9-1.6 1.5-3.5 1.5-5.1v-14.9 -12.7c0-4.6-3.8-6-6.8-4.2l-28 16.2"/></g></svg>