<svg height="51" width="215" xmlns="http://www.w3.org/2000/svg"><g fill="none" fill-rule="evenodd"><path d="M31.06 12.06v27c0 1.34-.43 1.77-1.8 1.77h-4.68c-1.37 0-1.84-.43-1.84-1.76v-6.15c0-2.84.25-5.55 1.88-11.27h-.42a64.12 64.12 0 01-2.92 7.1l-2.4 4.86c-.43.86-.86 1.24-2.02 1.24h-2.92c-1.16 0-1.58-.3-2.06-1.24L9.4 28.75c-.9-1.64-2.23-5.6-2.66-7.1h-.47c1.59 6.2 1.76 8.34 1.76 11.31v6.1c0 1.34-.43 1.77-1.8 1.77H1.8c-1.33 0-1.8-.43-1.8-1.76V12.06c0-1.38.47-1.81 1.8-1.81h4.03c1.5 0 1.98.26 2.58 1.33l7.03 13.94 7.08-13.9c.65-1.16 1.03-1.37 2.4-1.37h4.34c1.37 0 1.8.43 1.8 1.8m18.7 5.12c-2.96 0-4.68 1.42-4.68 4.13v8.52c0 2.71 1.72 4.13 4.68 4.13 3 0 4.72-1.42 4.72-4.13V21.3c0-2.7-1.72-4.13-4.72-4.13m0-7.52c8.5 0 13.21 4.6 13.21 12.04v7.74c0 7.44-4.72 12.05-13.21 12.05-8.45 0-13.17-4.6-13.17-12.05V21.7c0-7.44 4.72-12.04 13.17-12.04m41.6 2.45v3.87c0 1.38-.46 1.85-1.8 1.85h-6.39v21.2c0 1.34-.47 1.81-1.8 1.81h-4.89c-1.33 0-1.8-.47-1.8-1.8V17.82h-6.4c-1.32 0-1.8-.47-1.8-1.85V12.1c0-1.34.48-1.8 1.8-1.8h21.29c1.33 0 1.8.46 1.8 1.8m16.6 5.07c-2.96 0-4.68 1.42-4.68 4.13v8.52c0 2.71 1.72 4.13 4.68 4.13 3 0 4.72-1.42 4.72-4.13V21.3c0-2.7-1.72-4.13-4.72-4.13m0-7.52c8.5 0 13.21 4.6 13.21 12.04v7.74c0 7.44-4.72 12.05-13.21 12.05-8.45 0-13.17-4.6-13.17-12.05V21.7c0-7.44 4.72-12.04 13.17-12.04m31.83 8.17h-4.6v5.68h4.6c1.84 0 2.83-1.12 2.83-2.88 0-1.73-.99-2.8-2.83-2.8m11.62 2.84c0 4.21-1.67 7.22-4.59 8.86a23 23 0 011.16 1.85l3.86 7.35c.6 1.17.3 2.11-1.11 2.11h-4.68c-2.27 0-3.22-.56-3.95-2.06l-2.74-5.9c-.69-1.46-1.42-2.19-3.18-2.19h-.98v8.35c0 1.33-.48 1.8-1.8 1.8h-4.9c-1.33 0-1.8-.47-1.8-1.8V12.1c0-1.33.47-1.8 1.8-1.8h12.27c6.48 0 10.64 3.7 10.64 10.36" fill="#2e3843"/><path d="M206.56 28.67a3.11 3.11 0 110-6.22 3.11 3.11 0 010 6.22M189.84.73h-27.06a3.1 3.1 0 00-3.11 3.1V47.3a3.1 3.1 0 003.1 3.1h27.07a24.83 24.83 0 000-49.66" fill="#c72127"/><path d="M177.96 21.78h.91l3.34-5.26-4.58-5.27c.23.28.33.7.33 1.3v9.23zm30.64 6.11a3.08 3.08 0 01-5.15-2.33c0-.94.43-1.78 1.1-2.35l-10.46-12.03c.27.33.26.83-.12 1.45l-7.57 12.06a8.36 8.36 0 012.54 3.2l5.49 10.4c.58 1.12.29 2.04-1.09 2.04h-4.49c-2.2 0-3-.3-3.7-1.75l-3.62-7.45c-.66-1.33-1.25-2.07-2.83-2.07h-.74v9.52c0 1.29-.42 1.75-1.75 1.75h-4.7c-.8 0-1.27-.17-1.53-.58l-.02.01 9.24 10.64h10.64a24.84 24.84 0 0023.55-17l-4.78-5.51z" fill="#9c1419"/><path d="M193.34 40.33h-4.53c-2.2 0-2.95-.3-3.66-1.75l-3.62-7.45c-.66-1.33-1.29-2.08-2.87-2.08h-.7v9.53c0 1.29-.46 1.75-1.75 1.75h-4.74c-1.3 0-1.75-.46-1.75-1.75V12.54c0-1.29.46-1.74 1.75-1.74h4.74c1.29 0 1.75.45 1.75 1.74v9.24h.91l5.95-9.45c.83-1.28 1.2-1.53 3.32-1.53h4.83c1.25 0 1.62.75 1 1.83l-7.57 12.06c1 .75 1.79 1.79 2.54 3.2l5.49 10.4c.58 1.12.29 2.04-1.09 2.04" fill="#fff"/></g></svg>