<svg xmlns="http://www.w3.org/2000/svg" width="215" height="51" viewBox="0 0 215 51"><g fill="none" fill-rule="evenodd"><path fill="#2E3843" d="M31.059073 12.055234v27.013243c0 1.333286-.42913 1.763872-1.801757 1.763872h-4.675972c-1.372628 0-1.844743-.430587-1.844743-1.763873V32.91715c0-2.838516.257187-5.5488 1.88773-11.269544h-.42913c-.429127 1.419257-2.015956 5.33387-2.9172 7.097743l-2.4021 4.8603c-.429127.86044-.858256 1.247313-2.016684 1.247313h-2.9172c-1.1577 0-1.58683-.3009-2.058943-1.247314L9.395 28.74535c-.90124-1.634916-2.230884-5.592516-2.660013-7.097744h-.472114c1.587557 6.194314 1.7595 8.344328 1.7595 11.312528v6.108343c0 1.333286-.42913 1.763872-1.801757 1.763872H1.80183c-1.329643 0-1.801757-.430587-1.801757-1.763873V12.055234c0-1.37627.472114-1.806857 1.801757-1.806857h4.032643c1.501586 0 1.97297.258643 2.573314 1.334014L15.4436 25.519235l7.0788-13.893857c.64333-1.16207 1.029473-1.377 2.4021-1.377h4.332816c1.372628 0 1.801757.430586 1.801757 1.806857m18.70046 5.11887c-2.960184 0-4.67597 1.419257-4.67597 4.129543v8.517c0 2.709557 1.715786 4.128814 4.67597 4.128814 3.003173 0 4.718958-1.419256 4.718958-4.128813v-8.517c0-2.710286-1.715784-4.129543-4.718956-4.129543m0-7.5276c8.493686 0 13.212643 4.602386 13.212643 12.044015v7.742527c0 7.44163-4.718957 12.044743-13.212643 12.044743-8.451428 0-13.170385-4.603114-13.170385-12.044743V21.69052c0-7.44163 4.718956-12.044016 13.170384-12.044016m41.609297 2.451643v3.87163c0 1.37627-.472113 1.849113-1.801756 1.849113H83.17459v21.20653c0 1.333284-.471387 1.806856-1.80103 1.806856h-4.8909c-1.329643 0-1.801757-.473572-1.801757-1.806857V17.81889h-6.391757c-1.330372 0-1.801757-.472843-1.801757-1.849114v-3.87163c0-1.333285.471384-1.806127 1.801756-1.806127h21.277928c1.329643 0 1.801757.47284 1.801757 1.806127m16.59941 5.075957c-2.95946 0-4.675973 1.419257-4.675973 4.129543v8.517c0 2.709557 1.716514 4.128814 4.675972 4.128814 3.00317 0 4.718956-1.419256 4.718956-4.128813v-8.517c0-2.710286-1.715786-4.129543-4.718957-4.129543m0-7.5276c8.494413 0 13.21337 4.602386 13.21337 12.044015v7.742527c0 7.44163-4.718957 12.044743-13.21337 12.044743-8.4507 0-13.170387-4.603114-13.170387-12.044743V21.69052c0-7.44163 4.719686-12.044016 13.170386-12.044016m31.82808 8.172605h-4.59v5.677756h4.59c1.84474 0 2.831227-1.118357 2.831227-2.8815 0-1.720886-.986486-2.796257-2.831228-2.796257m11.625813 2.83924c0 4.215516-1.6728 7.225973-4.59 8.860887.386143.558814.771557 1.161343 1.158428 1.849843l3.8607 7.355657c.600344 1.161343.300173 2.107757-1.11544 2.107757h-4.675973c-2.27387 0-3.21737-.559543-3.94667-2.06477l-2.745987-5.893415c-.686314-1.462244-1.415614-2.19373-3.174386-2.19373h-.986485v8.345057c0 1.333286-.472116 1.806857-1.80176 1.806857h-4.8909c-1.32964 0-1.801756-.47357-1.801756-1.806857v-26.92727c0-1.333287.472115-1.806858 1.801757-1.806858h12.269144c6.47773 0 10.63933 3.699684 10.63933 10.36684"></path><path class="navigation__logo--primary" fill="#C72127" d="M47.005753 28.547396c-1.716514 0-3.109543-1.39303-3.109543-3.110272 0-1.71797 1.39303-3.108814 3.109543-3.108814 1.717243 0 3.108814 1.390843 3.108814 3.108814 0 1.717243-1.39157 3.110272-3.108814 3.110272M30.28431.60304H3.220066c-1.716513 0-3.108813 1.3923-3.108813 3.108813v43.449814c0 1.717972 1.3923 3.109543 3.108814 3.109543H30.28431c13.70807-.01093 24.81587-11.1231 24.81587-24.834086 0-13.710257-11.1078-24.823157-24.81587-24.834085" mask="url(#b)" transform="translate(159.557 .125)"></path><path class="navigation__logo--primary-dark" fill="#9C1419" d="M177.95561 21.777364h.915087l3.337586-5.261014-4.576157-5.266843c-.001457.00073-.002915.001457-.004372.002186.231686.277586.327857.691414.327857 1.292486v9.233184z"></path><path class="navigation__logo--primary-dark" fill="#9C1419" d="M38.85209 16.832987c-.547884.483043-1.25897.78613-2.046556.78613-1.715785 0-3.108814-1.393758-3.108814-3.111 0-.94423.429857-1.779173 1.094314-2.348916L24.33239.122474c-.000727.002186-.002913.0051-.00437.007286.279043.323484.263014.8262-.1173 1.444027L16.64159 13.63456c1.039673.74897 1.829444 1.78864 2.536887 3.2028l5.489786 10.39744c.582128 1.12346.2907 2.037816-1.0812 2.037816H19.09469c-2.203927 0-2.994427-.2907-3.70114-1.746386l-3.618087-7.44527c-.665914-1.330373-1.248043-2.079344-2.828314-2.079344h-.748973v9.524614c0 1.28957-.416014 1.746386-1.746386 1.746386H1.751778c-.792686 0-1.270628-.167572-1.531457-.57193-.00583.002187-.01093.0051-.01603.006558L9.444764 39.34293H20.08409c10.972287-.008743 20.271773-7.133443 23.549616-17.006314l-4.781615-5.50363z" mask="url(#d)" transform="translate(169.757 11.054)"></path><path class="navigation__logo--light" fill="#FFF" d="M193.343914 40.325846h-4.5339c-2.203928 0-2.9529-.29143-3.659614-1.747115l-3.618814-7.44454c-.665186-1.3311-1.288843-2.079344-2.869843-2.079344h-.706714v9.523885c0 1.289573-.457544 1.747116-1.747116 1.747116H171.4671c-1.28957 0-1.747114-.457543-1.747114-1.747115v-26.0355c0-1.28957.457543-1.747113 1.747114-1.747113h4.740814c1.289572 0 1.747115.457543 1.747115 1.747114v9.233187h.915084l5.94733-9.441557c.832027-1.288843 1.206513-1.538743 3.327385-1.538743h4.8246c1.24804 0 1.6218.748972.99814 1.830172l-7.569127 12.0615c.998143.74824 1.787914 1.78864 2.536886 3.20207l5.489784 10.39817c.58213 1.12273.29143 2.037816-1.0812 2.037816"></path></g></svg>